<svg xmlns="http://www.w3.org/2000/svg" xmlns:xlink="http://www.w3.org/1999/xlink" width="2000" zoomAndPan="magnify" viewBox="0 0 1500 1499.999933" height="2000" preserveAspectRatio="xMidYMid meet" version="1.0"><defs><clipPath id="78ec8b1e0e"><path d="M 483 462 L 1350 462 L 1350 1278 L 483 1278 Z M 483 462 " clip-rule="nonzero"/></clipPath><clipPath id="ea7e6c2857"><path d="M 587 432.257812 L 918 432.257812 L 918 1066.757812 L 587 1066.757812 Z M 587 432.257812 " clip-rule="nonzero"/></clipPath></defs><path fill="#ffc829" d="M 1500 750 C 1500 762.273438 1499.699219 774.542969 1499.097656 786.800781 C 1498.496094 799.058594 1497.589844 811.296875 1496.386719 823.511719 C 1495.183594 835.726562 1493.683594 847.90625 1491.882812 860.046875 C 1490.082031 872.1875 1487.984375 884.277344 1485.589844 896.316406 C 1483.195312 908.355469 1480.503906 920.328125 1477.523438 932.234375 C 1474.539062 944.140625 1471.269531 955.96875 1467.703125 967.714844 C 1464.140625 979.460938 1460.292969 991.109375 1456.15625 1002.667969 C 1452.023438 1014.222656 1447.605469 1025.671875 1442.910156 1037.011719 C 1438.210938 1048.351562 1433.238281 1059.570312 1427.992188 1070.664062 C 1422.742188 1081.761719 1417.226562 1092.722656 1411.441406 1103.546875 C 1405.65625 1114.371094 1399.605469 1125.050781 1393.296875 1135.578125 C 1386.984375 1146.105469 1380.421875 1156.472656 1373.601562 1166.675781 C 1366.78125 1176.882812 1359.71875 1186.914062 1352.40625 1196.773438 C 1345.09375 1206.632812 1337.542969 1216.304688 1329.757812 1225.792969 C 1321.972656 1235.28125 1313.957031 1244.574219 1305.714844 1253.667969 C 1297.46875 1262.761719 1289.007812 1271.652344 1280.328125 1280.328125 C 1271.652344 1289.007812 1262.761719 1297.46875 1253.667969 1305.714844 C 1244.574219 1313.957031 1235.28125 1321.972656 1225.792969 1329.757812 C 1216.308594 1337.542969 1206.632812 1345.09375 1196.773438 1352.40625 C 1186.914062 1359.71875 1176.882812 1366.78125 1166.675781 1373.601562 C 1156.472656 1380.421875 1146.105469 1386.984375 1135.578125 1393.296875 C 1125.050781 1399.605469 1114.371094 1405.65625 1103.546875 1411.441406 C 1092.722656 1417.226562 1081.761719 1422.742188 1070.667969 1427.992188 C 1059.570312 1433.238281 1048.351562 1438.210938 1037.011719 1442.910156 C 1025.671875 1447.605469 1014.222656 1452.023438 1002.667969 1456.15625 C 991.109375 1460.292969 979.460938 1464.140625 967.714844 1467.703125 C 955.96875 1471.269531 944.140625 1474.539062 932.234375 1477.523438 C 920.328125 1480.503906 908.355469 1483.195312 896.316406 1485.589844 C 884.277344 1487.984375 872.1875 1490.082031 860.046875 1491.882812 C 847.90625 1493.683594 835.726562 1495.183594 823.511719 1496.386719 C 811.296875 1497.589844 799.058594 1498.492188 786.800781 1499.097656 C 774.542969 1499.699219 762.273438 1500 750 1500 C 737.726562 1500 725.457031 1499.699219 713.199219 1499.097656 C 700.941406 1498.492188 688.703125 1497.589844 676.488281 1496.386719 C 664.273438 1495.183594 652.09375 1493.683594 639.953125 1491.882812 C 627.8125 1490.082031 615.71875 1487.984375 603.683594 1485.589844 C 591.644531 1483.195312 579.671875 1480.503906 567.765625 1477.523438 C 555.859375 1474.539062 544.03125 1471.269531 532.285156 1467.703125 C 520.539062 1464.140625 508.890625 1460.292969 497.332031 1456.15625 C 485.777344 1452.023438 474.328125 1447.605469 462.988281 1442.910156 C 451.648438 1438.210938 440.429688 1433.238281 429.332031 1427.992188 C 418.238281 1422.742188 407.277344 1417.226562 396.453125 1411.441406 C 385.628906 1405.65625 374.949219 1399.605469 364.421875 1393.296875 C 353.894531 1386.984375 343.527344 1380.421875 333.320312 1373.601562 C 323.117188 1366.78125 313.085938 1359.71875 303.226562 1352.40625 C 293.367188 1345.09375 283.691406 1337.542969 274.203125 1329.757812 C 264.71875 1321.972656 255.425781 1313.957031 246.332031 1305.714844 C 237.234375 1297.46875 228.347656 1289.007812 219.667969 1280.328125 C 210.992188 1271.652344 202.53125 1262.761719 194.285156 1253.667969 C 186.042969 1244.574219 178.027344 1235.28125 170.242188 1225.792969 C 162.457031 1216.304688 154.90625 1206.632812 147.59375 1196.773438 C 140.28125 1186.914062 133.21875 1176.882812 126.398438 1166.675781 C 119.578125 1156.472656 113.015625 1146.105469 106.703125 1135.578125 C 100.394531 1125.046875 94.34375 1114.371094 88.558594 1103.546875 C 82.773438 1092.722656 77.257812 1081.761719 72.007812 1070.664062 C 66.761719 1059.570312 61.789062 1048.351562 57.089844 1037.011719 C 52.394531 1025.671875 47.976562 1014.222656 43.84375 1002.667969 C 39.707031 991.109375 35.859375 979.460938 32.292969 967.714844 C 28.730469 955.96875 25.460938 944.140625 22.476562 932.234375 C 19.496094 920.328125 16.804688 908.355469 14.410156 896.316406 C 12.015625 884.277344 9.917969 872.1875 8.117188 860.046875 C 6.316406 847.90625 4.816406 835.726562 3.613281 823.511719 C 2.410156 811.296875 1.503906 799.058594 0.902344 786.800781 C 0.300781 774.542969 0 762.273438 0 750 C 0 737.726562 0.300781 725.457031 0.902344 713.199219 C 1.503906 700.941406 2.410156 688.703125 3.613281 676.488281 C 4.816406 664.273438 6.316406 652.09375 8.117188 639.953125 C 9.917969 627.808594 12.015625 615.71875 14.410156 603.683594 C 16.804688 591.644531 19.496094 579.671875 22.476562 567.765625 C 25.460938 555.859375 28.730469 544.03125 32.292969 532.285156 C 35.859375 520.539062 39.707031 508.890625 43.84375 497.332031 C 47.976562 485.777344 52.394531 474.328125 57.089844 462.988281 C 61.789062 451.648438 66.761719 440.429688 72.007812 429.332031 C 77.257812 418.238281 82.773438 407.277344 88.558594 396.453125 C 94.34375 385.628906 100.394531 374.949219 106.703125 364.421875 C 113.015625 353.894531 119.578125 343.527344 126.398438 333.320312 C 133.21875 323.117188 140.28125 313.085938 147.59375 303.226562 C 154.90625 293.367188 162.457031 283.691406 170.242188 274.203125 C 178.027344 264.714844 186.042969 255.425781 194.285156 246.332031 C 202.53125 237.234375 210.992188 228.347656 219.667969 219.667969 C 228.347656 210.992188 237.234375 202.53125 246.332031 194.285156 C 255.425781 186.042969 264.71875 178.027344 274.203125 170.242188 C 283.691406 162.457031 293.367188 154.90625 303.226562 147.59375 C 313.085938 140.28125 323.117188 133.21875 333.324219 126.398438 C 343.527344 119.578125 353.894531 113.015625 364.421875 106.703125 C 374.949219 100.394531 385.628906 94.34375 396.453125 88.558594 C 407.277344 82.773438 418.238281 77.257812 429.332031 72.007812 C 440.429688 66.761719 451.648438 61.789062 462.988281 57.089844 C 474.328125 52.394531 485.777344 47.976562 497.332031 43.84375 C 508.890625 39.707031 520.539062 35.859375 532.285156 32.292969 C 544.03125 28.730469 555.859375 25.457031 567.765625 22.476562 C 579.671875 19.492188 591.644531 16.804688 603.683594 14.410156 C 615.71875 12.015625 627.8125 9.917969 639.953125 8.117188 C 652.09375 6.316406 664.273438 4.816406 676.488281 3.613281 C 688.703125 2.410156 700.941406 1.503906 713.199219 0.902344 C 725.457031 0.300781 737.726562 0 750 0 C 762.273438 0 774.542969 0.300781 786.800781 0.902344 C 799.058594 1.503906 811.296875 2.410156 823.511719 3.613281 C 835.726562 4.816406 847.90625 6.316406 860.046875 8.117188 C 872.1875 9.917969 884.277344 12.015625 896.316406 14.410156 C 908.355469 16.804688 920.328125 19.492188 932.234375 22.476562 C 944.140625 25.457031 955.96875 28.730469 967.714844 32.292969 C 979.460938 35.859375 991.109375 39.707031 1002.667969 43.84375 C 1014.222656 47.976562 1025.671875 52.394531 1037.011719 57.089844 C 1048.351562 61.789062 1059.570312 66.761719 1070.667969 72.007812 C 1081.761719 77.257812 1092.722656 82.773438 1103.546875 88.558594 C 1114.371094 94.34375 1125.050781 100.394531 1135.578125 106.703125 C 1146.105469 113.015625 1156.472656 119.578125 1166.675781 126.398438 C 1176.882812 133.21875 1186.914062 140.28125 1196.773438 147.59375 C 1206.632812 154.90625 1216.308594 162.457031 1225.792969 170.242188 C 1235.28125 178.027344 1244.574219 186.042969 1253.667969 194.285156 C 1262.761719 202.53125 1271.652344 210.992188 1280.328125 219.667969 C 1289.007812 228.347656 1297.46875 237.234375 1305.714844 246.332031 C 1313.957031 255.425781 1321.972656 264.714844 1329.757812 274.203125 C 1337.542969 283.691406 1345.09375 293.367188 1352.40625 303.226562 C 1359.71875 313.085938 1366.78125 323.117188 1373.601562 333.320312 C 1380.421875 343.527344 1386.984375 353.894531 1393.296875 364.421875 C 1399.605469 374.949219 1405.65625 385.628906 1411.441406 396.453125 C 1417.226562 407.277344 1422.742188 418.238281 1427.992188 429.332031 C 1433.238281 440.429688 1438.210938 451.648438 1442.910156 462.988281 C 1447.605469 474.328125 1452.023438 485.777344 1456.15625 497.332031 C 1460.292969 508.890625 1464.140625 520.539062 1467.703125 532.285156 C 1471.269531 544.03125 1474.539062 555.859375 1477.523438 567.765625 C 1480.503906 579.671875 1483.195312 591.644531 1485.589844 603.683594 C 1487.984375 615.71875 1490.082031 627.8125 1491.882812 639.953125 C 1493.683594 652.09375 1495.183594 664.273438 1496.386719 676.488281 C 1497.589844 688.703125 1498.496094 700.941406 1499.097656 713.199219 C 1499.699219 725.457031 1500 737.726562 1500 750 Z M 1500 750 " fill-opacity="1" fill-rule="nonzero"/><path fill="#ffc829" d="M 977.101562 782.699219 C 958.199219 754.199219 934.5 733.5 906.300781 720.601562 C 878.101562 707.699219 842.699219 696.601562 800.398438 687.300781 C 798.601562 687 797.101562 686.699219 795.300781 686.398438 C 793.5 686.101562 792 685.800781 790.199219 685.5 C 789.898438 685.5 789.601562 685.5 789.300781 685.199219 C 789 684.898438 788.699219 684.898438 788.398438 684.898438 C 760.199219 678.898438 738.300781 672.898438 722.101562 667.5 C 705.898438 661.800781 692.398438 652.800781 681.601562 640.5 C 670.800781 628.199219 665.398438 611.101562 665.398438 589.5 L 665.398438 588.898438 C 665.398438 563.699219 675.300781 544.5 695.101562 530.398438 C 714.898438 516.601562 742.5 509.699219 777.898438 509.699219 C 803.101562 509.699219 828.898438 515.101562 855.898438 525.601562 C 882.898438 536.101562 908.699219 551.101562 933.898438 570.898438 L 992.101562 454.5 C 970.800781 438.601562 948 424.800781 924.300781 413.398438 C 900.300781 402 876 393.300781 851.101562 387.300781 C 844.800781 385.800781 838.5 384.601562 832.199219 383.398438 L 832.199219 297 L 694.800781 297 L 694.800781 387 C 676.5 391.199219 659.398438 397.199219 643.800781 404.398438 C 606.601562 421.800781 578.398438 447.300781 558.898438 480.898438 C 539.398438 514.199219 529.5 554.699219 529.5 601.800781 L 529.5 602.398438 C 529.5 655.800781 540 696.898438 560.699219 726 C 581.699219 754.800781 606.601562 774.898438 636 786 C 665.101562 797.101562 703.5 807 750.601562 815.699219 C 751.5 815.699219 752.699219 815.699219 753.898438 816 C 755.101562 816.300781 756.300781 816.300781 757.199219 816.898438 C 757.800781 817.199219 758.699219 817.5 759.601562 817.5 C 760.5 817.5 761.101562 817.800781 762 818.101562 C 785.398438 822.300781 804.601562 827.398438 819.601562 832.5 C 834.601562 837.898438 846.898438 846.300781 856.5 857.699219 C 866.101562 869.101562 870.898438 884.398438 870.898438 903.898438 L 870.898438 904.5 C 870.898438 932.101562 860.398438 953.699219 839.101562 969 C 817.800781 984.300781 788.101562 991.800781 749.699219 991.800781 C 714.300781 991.800781 680.101562 985.5 647.101562 972.898438 C 614.101562 960.300781 585 942.601562 559.199219 919.5 L 495.601562 1032.898438 C 507.300781 1048.199219 526.800781 1062.898438 554.101562 1076.699219 C 581.398438 1090.5 612.601562 1101.898438 647.699219 1110.300781 C 663.898438 1114.199219 679.800781 1117.199219 695.699219 1119.300781 L 695.699219 1203 L 833.101562 1203 L 833.101562 1113.601562 C 853.199219 1109.398438 871.800781 1103.398438 888.898438 1095.601562 C 927.601562 1078.199219 957 1053 977.101562 1020 C 997.199219 987 1007.398438 947.101562 1007.398438 900.601562 L 1007.398438 899.699219 C 1005.898438 850.5 996.300781 811.5 977.101562 782.699219 Z M 977.101562 782.699219 " fill-opacity="1" fill-rule="nonzero"/><path fill="#000000" d="M 343.066406 1037.402344 L 352.367188 760.148438 L 309.523438 801.472656 C 307.535156 784.382812 306.53125 767.191406 306.53125 750.023438 C 306.53125 505.464844 505.5 306.496094 750.0625 306.496094 C 821.960938 306.496094 890.542969 323.152344 953.890625 355.996094 L 977.578125 368.273438 L 1016.476562 293.261719 L 992.785156 280.976562 C 918.363281 242.394531 834.429688 222 750.0625 222 C 458.90625 222 222.035156 458.871094 222.035156 750.027344 C 222.035156 780.171875 224.625 810.34375 229.765625 840.097656 L 150.972656 837.253906 Z M 343.066406 1037.402344 " fill-opacity="1" fill-rule="nonzero"/><g clip-path="url(#78ec8b1e0e)"><path fill="#000000" d="M 1147.75 739.71875 L 1190.578125 698.375 C 1192.578125 715.53125 1193.589844 732.792969 1193.589844 750.027344 C 1193.589844 994.585938 994.625 1193.554688 750.0625 1193.554688 C 678.089844 1193.554688 609.449219 1176.867188 546.046875 1143.960938 L 522.363281 1131.667969 L 483.4375 1206.667969 L 507.125 1218.960938 C 581.609375 1257.621094 665.617188 1278.054688 750.0625 1278.054688 C 1041.214844 1278.054688 1278.089844 1041.179688 1278.089844 750.027344 C 1278.089844 719.792969 1275.480469 689.542969 1270.320312 659.710938 L 1349.109375 662.519531 L 1156.925781 462.460938 Z M 1147.75 739.71875 " fill-opacity="1" fill-rule="nonzero"/></g><g clip-path="url(#ea7e6c2857)"><path fill="#000000" d="M 717.886719 1066.757812 L 717.886719 990.96875 C 686.75 983.917969 659.871094 970.40625 637.253906 950.433594 C 614.632812 930.457031 598.035156 902.257812 587.460938 865.832031 L 652.675781 839.394531 C 661.488281 867.59375 674.558594 889.039062 691.890625 903.726562 C 709.222656 918.414062 731.988281 925.757812 760.1875 925.757812 C 784.273438 925.757812 804.691406 920.324219 821.433594 909.453125 C 838.175781 898.585938 846.550781 881.695312 846.550781 858.78125 C 846.550781 838.21875 840.085938 821.917969 827.160156 809.871094 C 814.238281 797.828125 784.273438 784.167969 737.273438 768.894531 C 686.75 753.03125 652.085938 734.085938 633.285156 712.054688 C 614.488281 690.023438 605.085938 663.144531 605.085938 631.417969 C 605.085938 593.230469 617.425781 563.5625 642.097656 542.414062 C 666.773438 521.261719 692.035156 509.21875 717.886719 506.28125 L 717.886719 432.257812 L 788.386719 432.257812 L 788.386719 506.28125 C 817.761719 510.980469 841.996094 521.703125 861.089844 538.449219 C 880.183594 555.191406 894.136719 575.605469 902.949219 599.695312 L 837.738281 627.894531 C 830.6875 609.09375 820.699219 594.996094 807.773438 585.59375 C 794.847656 576.195312 777.222656 571.496094 754.898438 571.496094 C 729.050781 571.496094 709.367188 577.222656 695.855469 588.679688 C 682.34375 600.136719 675.585938 614.382812 675.585938 631.417969 C 675.585938 650.808594 684.398438 666.082031 702.023438 677.246094 C 719.648438 688.40625 750.199219 700.15625 793.675781 712.496094 C 834.210938 724.246094 864.910156 742.898438 885.765625 768.453125 C 906.621094 794.011719 917.050781 823.53125 917.050781 857.019531 C 917.050781 898.730469 904.710938 930.457031 880.035156 952.195312 C 855.363281 973.933594 824.8125 987.445312 788.386719 992.730469 L 788.386719 1066.757812 Z M 717.886719 1066.757812 " fill-opacity="1" fill-rule="nonzero"/></g></svg>